<svg width="45" height="42" viewBox="0 0 45 42" fill="none" xmlns="http://www.w3.org/2000/svg">
<path d="M22.3333 0.166626C19.4835 0.166626 16.6615 0.705496 14.0286 1.75247C11.3956 2.79944 9.00331 4.33401 6.98815 6.26857C2.91835 10.1756 0.631958 15.4746 0.631958 21C0.631958 26.5253 2.91835 31.8243 6.98815 35.7314C9.00331 37.6659 11.3956 39.2005 14.0286 40.2475C16.6615 41.2944 19.4835 41.8333 22.3333 41.8333C28.0889 41.8333 33.6087 39.6384 37.6785 35.7314C41.7483 31.8243 44.0347 26.5253 44.0347 21C44.0347 18.2641 43.4734 15.555 42.3828 13.0274C41.2922 10.4998 39.6937 8.20312 37.6785 6.26857C35.6634 4.33401 33.271 2.79944 30.6381 1.75247C28.0052 0.705496 25.1832 0.166626 22.3333 0.166626ZM11.6346 34.0833C12.5677 32.2083 18.2535 30.375 22.3333 30.375C26.4132 30.375 32.099 32.2083 33.0321 34.0833C29.9926 36.4083 26.2198 37.672 22.3333 37.6666C18.2969 37.6666 14.586 36.3333 11.6346 34.0833ZM36.1354 31.0625C33.0321 27.4375 25.5017 26.2083 22.3333 26.2083C19.1649 26.2083 11.6346 27.4375 8.53126 31.0625C6.22264 28.1763 4.97151 24.6389 4.97224 21C4.97224 11.8125 12.763 4.33329 22.3333 4.33329C31.9037 4.33329 39.6945 11.8125 39.6945 21C39.6945 24.7916 38.349 28.2916 36.1354 31.0625ZM22.3333 8.49996C18.1233 8.49996 14.7379 11.75 14.7379 15.7916C14.7379 19.8333 18.1233 23.0833 22.3333 23.0833C26.5434 23.0833 29.9288 19.8333 29.9288 15.7916C29.9288 11.75 26.5434 8.49996 22.3333 8.49996ZM22.3333 18.9166C21.47 18.9166 20.642 18.5874 20.0316 18.0013C19.4211 17.4153 19.0781 16.6204 19.0781 15.7916C19.0781 14.9628 19.4211 14.168 20.0316 13.5819C20.642 12.9959 21.47 12.6666 22.3333 12.6666C23.1967 12.6666 24.0247 12.9959 24.6351 13.5819C25.2456 14.168 25.5886 14.9628 25.5886 15.7916C25.5886 16.6204 25.2456 17.4153 24.6351 18.0013C24.0247 18.5874 23.1967 18.9166 22.3333 18.9166Z" fill="#15163D" fill-opacity="0.6"/>
</svg>
